<svg id="visual" viewBox="0 0 960 540" width="960" height="540" xmlns="http://www.w3.org/2000/svg" xmlns:xlink="http://www.w3.org/1999/xlink" version="1.1"><rect x="0" y="0" width="960" height="540" fill="#ffffff"></rect><g transform="translate(474.19986521978757 249.03836188961048)"><path d="M216 -232C282.5 -201.7 340.7 -136 340.2 -70.1C339.8 -4.2 280.8 61.9 229.2 114.5C177.6 167.1 133.4 206.2 76.5 239.8C19.5 273.5 -50.3 301.6 -123.3 294.3C-196.4 287.1 -272.7 244.3 -306.8 179.8C-341 115.2 -333 29 -296.5 -30.5C-260 -89.9 -195.1 -122.5 -140.9 -155C-86.8 -187.4 -43.4 -219.7 15.7 -238.4C74.8 -257.1 149.6 -262.2 216 -232" fill="#205683"></path></g></svg>