<svg id="visual" viewBox="0 0 960 540" width="960" height="540" xmlns="http://www.w3.org/2000/svg" xmlns:xlink="http://www.w3.org/1999/xlink" version="1.1"><rect x="0" y="0" width="960" height="540" fill="#ffffff"></rect><g transform="translate(525.461374627802 215.26695524904778)"><path d="M145.5 -163.4C192.4 -134 237.1 -91.8 241.6 -45.6C246.2 0.6 210.8 50.9 186.4 121.2C162.1 191.5 148.8 281.8 98.5 322.6C48.3 363.3 -38.8 354.6 -91.2 309.8C-143.7 265 -161.5 184.3 -207 114.9C-252.5 45.6 -325.7 -12.4 -332.4 -73.3C-339.2 -134.2 -279.5 -198.1 -213 -224C-146.6 -250 -73.3 -238 -12 -223.7C49.3 -209.4 98.6 -192.8 145.5 -163.4" fill="#205683"></path></g></svg>