<svg id="visual" viewBox="0 0 960 540" width="960" height="540" xmlns="http://www.w3.org/2000/svg" xmlns:xlink="http://www.w3.org/1999/xlink" version="1.1"><path d="M0 50L22.8 50.8C45.7 51.7 91.3 53.3 137 52.3C182.7 51.3 228.3 47.7 274 49.5C319.7 51.3 365.3 58.7 411.2 62.3C457 66 503 66 548.8 63.3C594.7 60.7 640.3 55.3 686 52.7C731.7 50 777.3 50 823 53.5C868.7 57 914.3 64 937.2 67.5L960 71L960 0L937.2 0C914.3 0 868.7 0 823 0C777.3 0 731.7 0 686 0C640.3 0 594.7 0 548.8 0C503 0 457 0 411.2 0C365.3 0 319.7 0 274 0C228.3 0 182.7 0 137 0C91.3 0 45.7 0 22.8 0L0 0Z" fill="#2675b6"></path><path d="M0 82L22.8 83.8C45.7 85.7 91.3 89.3 137 88.5C182.7 87.7 228.3 82.3 274 82.3C319.7 82.3 365.3 87.7 411.2 92.2C457 96.7 503 100.3 548.8 97.7C594.7 95 640.3 86 686 84.2C731.7 82.3 777.3 87.7 823 93.8C868.7 100 914.3 107 937.2 110.5L960 114L960 69L937.2 65.5C914.3 62 868.7 55 823 51.5C777.3 48 731.7 48 686 50.7C640.3 53.3 594.7 58.7 548.8 61.3C503 64 457 64 411.2 60.3C365.3 56.7 319.7 49.3 274 47.5C228.3 45.7 182.7 49.3 137 50.3C91.3 51.3 45.7 49.7 22.8 48.8L0 48Z" fill="#2b81c7"></path><path d="M0 174L22.8 172.2C45.7 170.3 91.3 166.7 137 161.2C182.7 155.7 228.3 148.3 274 148.3C319.7 148.3 365.3 155.7 411.2 163C457 170.3 503 177.7 548.8 174C594.7 170.3 640.3 155.7 686 153.8C731.7 152 777.3 163 823 167.5C868.7 172 914.3 170 937.2 169L960 168L960 112L937.2 108.5C914.3 105 868.7 98 823 91.8C777.3 85.7 731.7 80.3 686 82.2C640.3 84 594.7 93 548.8 95.7C503 98.3 457 94.7 411.2 90.2C365.3 85.7 319.7 80.3 274 80.3C228.3 80.3 182.7 85.7 137 86.5C91.3 87.3 45.7 83.7 22.8 81.8L0 80Z" fill="#2f8dd9"></path><path d="M0 325L22.8 318.7C45.7 312.3 91.3 299.7 137 287C182.7 274.3 228.3 261.7 274 263.5C319.7 265.3 365.3 281.7 411.2 288C457 294.3 503 290.7 548.8 291.5C594.7 292.3 640.3 297.7 686 296.8C731.7 296 777.3 289 823 283.7C868.7 278.3 914.3 274.7 937.2 272.8L960 271L960 166L937.2 167C914.3 168 868.7 170 823 165.5C777.3 161 731.7 150 686 151.8C640.3 153.7 594.7 168.3 548.8 172C503 175.7 457 168.3 411.2 161C365.3 153.7 319.7 146.3 274 146.3C228.3 146.3 182.7 153.7 137 159.2C91.3 164.7 45.7 168.3 22.8 170.2L0 172Z" fill="#349aeb"></path><path d="M0 379L22.8 368.2C45.7 357.3 91.3 335.7 137 322.2C182.7 308.7 228.3 303.3 274 306C319.7 308.7 365.3 319.3 411.2 325.7C457 332 503 334 548.8 337.7C594.7 341.3 640.3 346.7 686 344C731.7 341.3 777.3 330.7 823 324.3C868.7 318 914.3 316 937.2 315L960 314L960 269L937.2 270.8C914.3 272.7 868.7 276.3 823 281.7C777.3 287 731.7 294 686 294.8C640.3 295.7 594.7 290.3 548.8 289.5C503 288.7 457 292.3 411.2 286C365.3 279.7 319.7 263.3 274 261.5C228.3 259.7 182.7 272.3 137 285C91.3 297.7 45.7 310.3 22.8 316.7L0 323Z" fill="#43a4f4"></path><path d="M0 433L22.8 421.3C45.7 409.7 91.3 386.3 137 372C182.7 357.7 228.3 352.3 274 353.2C319.7 354 365.3 361 411.2 365.5C457 370 503 372 548.8 377.5C594.7 383 640.3 392 686 392.8C731.7 393.7 777.3 386.3 823 377.3C868.7 368.3 914.3 357.7 937.2 352.3L960 347L960 312L937.2 313C914.3 314 868.7 316 823 322.3C777.3 328.7 731.7 339.3 686 342C640.3 344.7 594.7 339.3 548.8 335.7C503 332 457 330 411.2 323.7C365.3 317.3 319.7 306.7 274 304C228.3 301.3 182.7 306.7 137 320.2C91.3 333.7 45.7 355.3 22.8 366.2L0 377Z" fill="#59adf5"></path><path d="M0 465L22.8 455.2C45.7 445.3 91.3 425.7 137 414C182.7 402.3 228.3 398.7 274 397.8C319.7 397 365.3 399 411.2 401.7C457 404.3 503 407.7 548.8 415.7C594.7 423.7 640.3 436.3 686 435.5C731.7 434.7 777.3 420.3 823 409.5C868.7 398.7 914.3 391.3 937.2 387.7L960 384L960 345L937.2 350.3C914.3 355.7 868.7 366.3 823 375.3C777.3 384.3 731.7 391.7 686 390.8C640.3 390 594.7 381 548.8 375.5C503 370 457 368 411.2 363.5C365.3 359 319.7 352 274 351.2C228.3 350.3 182.7 355.7 137 370C91.3 384.3 45.7 407.7 22.8 419.3L0 431Z" fill="#6cb5f6"></path><path d="M0 541L22.8 541C45.7 541 91.3 541 137 541C182.7 541 228.3 541 274 541C319.7 541 365.3 541 411.2 541C457 541 503 541 548.8 541C594.7 541 640.3 541 686 541C731.7 541 777.3 541 823 541C868.7 541 914.3 541 937.2 541L960 541L960 382L937.2 385.7C914.3 389.3 868.7 396.7 823 407.5C777.3 418.3 731.7 432.7 686 433.5C640.3 434.3 594.7 421.7 548.8 413.7C503 405.7 457 402.3 411.2 399.7C365.3 397 319.7 395 274 395.8C228.3 396.7 182.7 400.3 137 412C91.3 423.7 45.7 443.3 22.8 453.2L0 463Z" fill="#7ebef7"></path></svg>